<svg version="1" xmlns="http://www.w3.org/2000/svg" width="400" height="400" viewBox="0 0 300.000000 300.000000"><path d="M70 2.1C36.9 11 10.7 37.4 2.1 70.4.1 78.1 0 80.7 0 150s.1 71.9 2.1 79.6c8.7 33.2 35.1 59.6 68.3 68.3 7.7 2 10.3 2.1 79.6 2.1s71.9-.1 79.6-2.1c33.2-8.7 59.6-35.1 68.3-68.3 2-7.7 2.1-10.3 2.1-79.6s-.1-71.9-2.1-79.6c-8.7-33.2-35.1-59.6-68.3-68.3-7.7-2-10.2-2.1-80-2-69 0-72.4.1-79.6 2zm86.1 40.2c8.5 6.3 10 7.2 11.1 6.9.5-.1.7.2.3.8-1.4 2.3 3.1 2.1 13.6-.5 6-1.5 11.1-2.6 11.3-2.4.2.2 2.9 4.8 6.1 10.2 3.9 6.6 6.3 9.7 7.4 9.5.9-.1 2.2.2 3 .7 1 .6 1.6.4 1.9-.4.3-1 .6-1 1.2-.1.4.7 4.1 1.7 8.3 2.3 8.4 1.2 8 .8 9.3 10.7.3 3.1 1.3 6 2.2 6.7 1 .8 1.1 1.3.4 1.3-1.6 0-1.5 3 .1 3.1.9 0 .9.2 0 .6-2.5 1 .6 4 10 9.7l9.5 5.7-2.5 10.2c-1.3 5.6-2.5 10.9-2.6 11.7-.1 2.2 3.3 7.1 4.6 6.3.5-.3.7-.1.4.4-.4.6 1.3 3.8 3.8 7.2 2.5 3.4 4.5 6.6 4.5 7.1s-2 3.7-4.5 7.1c-2.5 3.4-4.2 6.6-3.8 7.2.3.5.1.7-.4.4-1.3-.8-4.7 4.1-4.6 6.3.1.8 1.3 6.1 2.6 11.7l2.5 10.2-9.5 5.7c-9 5.5-13.1 9.3-10.1 9.5 1 0 1 .2.1.6-1.6.6-1.7 3.3-.1 3.3.7 0 .6.5-.4 1.2-.9.8-1.9 3.7-2.2 6.8-1.3 9.9-.9 9.5-9.4 10.7-4.2.6-7.8 1.7-8 2.3-.3.9-.6.9-1.2 0-.5-.8-1.3-.9-2.1-.4s-2.1.7-3 .6c-1.1-.2-3.5 2.9-7.4 9.5-3.2 5.4-5.9 10-6.1 10.2-.2.2-5.3-.9-11.3-2.4-10.5-2.6-15-2.8-13.6-.5.4.6.2.9-.3.8-1.1-.3-2.3.4-11.3 7l-5.9 4.4-5.9-4.4c-9-6.6-10.2-7.3-11.3-7-.5.1-.7-.2-.3-.8 1.4-2.3-3.1-2.1-13.6.5-6 1.5-11.1 2.6-11.3 2.4-.2-.2-2.9-4.8-6.1-10.2-3.9-6.6-6.3-9.7-7.4-9.5-.9.1-2.2-.2-3-.7-1-.6-1.6-.4-1.9.4-.3 1-.6 1-1.2.1-.4-.7-4.1-1.7-8.3-2.3-8.4-1.2-8-.8-9.3-10.7-.3-3.1-1.3-6-2.2-6.8-1-.7-1.1-1.2-.4-1.2 1.6 0 1.5-3 0-3.1-1 0-1-.2-.1-.6 2.5-1-.6-4-10-9.7l-9.5-5.7 2.5-10.2c1.3-5.6 2.5-10.9 2.6-11.7.1-2.2-3.3-7.1-4.6-6.3-.5.3-.7.1-.4-.4.4-.6-1.3-3.8-3.8-7.2-2.5-3.4-4.5-6.6-4.5-7.1s2-3.7 4.5-7.1c2.5-3.4 4.2-6.6 3.8-7.2-.3-.5-.1-.7.4-.4 1.3.8 4.7-4.1 4.6-6.3-.1-.8-1.3-6.1-2.6-11.7l-2.5-10.2 9.5-5.7c9-5.5 13.1-9.3 10.1-9.5-1 0-1-.2 0-.6 1.5-.6 1.6-3.3 0-3.3-.7 0-.6-.5.4-1.3.9-.7 1.9-3.6 2.2-6.7 1.3-9.9.9-9.5 9.4-10.7 4.2-.6 7.8-1.7 8-2.3.3-.9.6-.9 1.2 0 .5.8 1.3.9 2.1.4s2.1-.7 3-.6c1.1.2 3.5-2.9 7.4-9.5 3.2-5.4 5.9-10 6.1-10.2.2-.2 5.3.9 11.3 2.4 10.5 2.6 15 2.8 13.6.5-.4-.6-.2-.9.3-.8 1.1.3 2.6-.6 11.1-6.9 3.1-2.3 5.8-4.2 6.1-4.2.3 0 3 1.9 6.1 4.2zM62.2 54.7c2.4 2.2 2.3 4.8-.3 6.7-4.7 3.3-9.4-2.8-5.3-6.8 2-2 3.3-2 5.6.1zm181.2-.1c4.1 4-.6 10.1-5.3 6.8-2.5-1.8-2.7-4.1-.4-6.6 2-2.2 3.7-2.3 5.7-.2zM23 95.4c0 .3-.4.8-1 1.1-.5.3-1 .1-1-.4 0-.6.5-1.1 1-1.1.6 0 1 .2 1 .4zm256 .6c0 .5-.2 1-.4 1-.3 0-.8-.5-1.1-1-.3-.6-.1-1 .4-1 .6 0 1.1.4 1.1 1zM22.5 204c.3.5.1 1-.4 1-.6 0-1.1-.5-1.1-1 0-.6.2-1 .4-1 .3 0 .8.4 1.1 1zm256.5 0c0 .5-.5 1-1.1 1-.5 0-.7-.5-.4-1 .3-.6.8-1 1.1-1 .2 0 .4.4.4 1zM63.8 241.7c.4 2.6-3.1 5.7-5.7 4.8-3.7-1.1-3.9-7.9-.3-8.8 2.3-.5 5.6 1.6 6 4zm180.7-1.6c1.6 4.9-3 8.6-6.6 5.3-2.5-2.2-2.4-4.9.2-6.7 2.5-1.8 5.6-1.1 6.4 1.4z"/><path d="M143 45.2c-3.6 2.7-6.4 5.4-6.2 6 .1.5-.1.7-.6.4-.4-.2-1.4-.1-2.2.4-.9.6-.1 1.2 2.9 2 2.4.6 4.5.9 4.8.6.3-.2 2.2.2 4.4.9 3.3 1.2 4.5 1.2 7.8 0 2.2-.7 4.1-1.1 4.4-.9.3.3 2.4 0 4.8-.6 3-.8 3.8-1.4 2.9-2-.8-.5-1.8-.6-2.2-.4-.5.3-.7.1-.6-.4.3-.8-12.4-11.3-13.4-11.1-.2 0-3.2 2.3-6.8 5.1zM103.2 56.8c-2.9 4.9-4.7 8.9-4.1 9.1.6.2 4.5-.2 8.7-.9 7.3-1.2 12-3.7 20.5-11 .5-.4-3.1-1.7-8-2.9-4.8-1.2-9.5-2.4-10.3-2.6-1.1-.4-3.1 2.2-6.8 8.3zM182 50.4c-4.7 1.2-9.1 2.4-9.8 2.7-.7.2 1.8 2.7 5.6 5.6 6.1 4.5 7.8 5.3 14.4 6.3 4.2.7 8.1 1.1 8.7.9 1-.4-8.8-18-9.9-17.8-.3 0-4.3 1.1-9 2.3zM126 58.1c-3 2.3-4.8 3.9-4 3.7 2.5-.9 16.2-3.7 19.5-4.1 3-.3 2.9-.3-1-1.4-8.9-2.6-8.7-2.6-14.5 1.8zM161.7 55.5c-6.1 1.7-7 2.5-2.6 2.5 3 0 12.2 1.8 18.4 3.6 1.1.4-.4-1.2-3.4-3.5-6-4.5-5.7-4.5-12.4-2.6zM132.8 63.9c-27.1 5.9-48.2 22.5-60.4 47.6-12 24.9-11.8 52.9.6 78 17.4 35 56.1 54.4 93.2 46.7 27.8-5.8 48.9-22.2 61.4-47.7 12-24.9 11.8-52.9-.6-78-11.1-22.4-30.8-38.7-55-45.5-11-3.1-27.9-3.6-39.2-1.1zM146 70c0 .5-.4 1-1 1-.5 0-1-.5-1-1 0-.6.5-1 1-1 .6 0 1 .4 1 1zm8-.6c0 .3-.4.8-1 1.1-.5.3-1 .1-1-.4 0-.6.5-1.1 1-1.1.6 0 1 .2 1 .4zm6.5.6c.3.5.1 1-.4 1-.6 0-1.1-.5-1.1-1 0-.6.2-1 .4-1 .3 0 .8.4 1.1 1zM139 71c0 .5-.4 1-1 1-.5 0-1-.5-1-1 0-.6.5-1 1-1 .6 0 1 .4 1 1zm-7 1c0 .5-.4 1-1 1-.5 0-1-.5-1-1 0-.6.5-1 1-1 .6 0 1 .4 1 1zm36-.6c0 .3-.4.8-1 1.1-.5.3-1 .1-1-.4 0-.6.5-1.1 1-1.1.6 0 1 .2 1 .4zM125 74c0 .5-.5 1-1.1 1-.5 0-.7-.5-.4-1 .3-.6.8-1 1.1-1 .2 0 .4.4.4 1zm50-.6c0 .3-.4.8-1 1.1-.5.3-1 .1-1-.4 0-.6.5-1.1 1-1.1.6 0 1 .2 1 .4zm13 5.6c0 .5-.4 1-1 1-.5 0-1-.5-1-1 0-.6.5-1 1-1 .6 0 1 .4 1 1zm-76 1c0 .5-.5 1-1.1 1-.5 0-.7-.5-.4-1 .3-.6.8-1 1.1-1 .2 0 .4.4.4 1zm82 3c0 .5-.4 1-1 1-.5 0-1-.5-1-1 0-.6.5-1 1-1 .6 0 1 .4 1 1zm-88 1c0 .5-.4 1-1 1-.5 0-1-.5-1-1 0-.6.5-1 1-1 .6 0 1 .4 1 1zm94 3c0 .5-.4 1-1 1-.5 0-1-.5-1-1 0-.6.5-1 1-1 .6 0 1 .4 1 1zm-99.6 2.1c-.3.5-1 .7-1.5.3-.5-.3-.7-1-.3-1.5.3-.5 1-.7 1.5-.3.5.3.7 1 .3 1.5zM95 93c0 .5-.5 1-1.1 1-.5 0-.7-.5-.4-1 .3-.6.8-1 1.1-1 .2 0 .4.4.4 1zm115 4c0 .5-.5 1-1.1 1-.5 0-.7-.5-.4-1 .3-.6.8-1 1.1-1 .2 0 .4.4.4 1zM90 99c0 .5-.2 1-.4 1-.3 0-.8-.5-1.1-1-.3-.6-.1-1 .4-1 .6 0 1.1.4 1.1 1zm125 4c0 .5-.4 1-1 1-.5 0-1-.5-1-1 0-.6.5-1 1-1 .6 0 1 .4 1 1zm4 6c0 .5-.4 1-1 1-.5 0-1-.5-1-1 0-.6.5-1 1-1 .6 0 1 .4 1 1zm-137 2c0 .5-.4 1-1 1-.5 0-1-.5-1-1 0-.6.5-1 1-1 .6 0 1 .4 1 1zm140 4c0 .5-.5 1-1.1 1-.5 0-.7-.5-.4-1 .3-.6.8-1 1.1-1 .2 0 .4.4.4 1zm-143.5 2c.3.5.1 1-.4 1-.6 0-1.1-.5-1.1-1 0-.6.2-1 .4-1 .3 0 .8.4 1.1 1zm86.5 13.7l-14.5 14.8 29.2.5 29.1.5-29.4 30-29.4 30-29.4-30-29.4-30 29.1-.5 29.2-.5-14.5-14.8-14.4-14.7h58.8L165 130.7zm60-8.7c0 .5-.4 1-1 1-.5 0-1-.5-1-1 0-.6.5-1 1-1 .6 0 1 .4 1 1zm-149 2c0 .5-.5 1-1.1 1-.5 0-.7-.5-.4-1 .3-.6.8-1 1.1-1 .2 0 .4.4.4 1zm151 5c0 .5-.4 1-1 1-.5 0-1-.5-1-1 0-.6.5-1 1-1 .6 0 1 .4 1 1zm-153 2c0 .5-.4 1-1 1-.5 0-1-.5-1-1 0-.6.5-1 1-1 .6 0 1 .4 1 1zm154.5 5c.3.5.1 1-.4 1-.6 0-1.1-.5-1.1-1 0-.6.2-1 .4-1 .3 0 .8.4 1.1 1zM73 138c0 .5-.4 1-1 1-.5 0-1-.5-1-1 0-.6.5-1 1-1 .6 0 1 .4 1 1zm-1 8c0 .5-.2 1-.4 1-.3 0-.8-.5-1.1-1-.3-.6-.1-1 .4-1 .6 0 1.1.4 1.1 1zm158 5c0 .5-.4 1-1 1-.5 0-1-.5-1-1 0-.6.5-1 1-1 .6 0 1 .4 1 1zm-158 2c0 .5-.4 1-1 1-.5 0-1-.5-1-1 0-.6.5-1 1-1 .6 0 1 .4 1 1zm1 7c0 .5-.4 1-1 1-.5 0-1-.5-1-1 0-.6.5-1 1-1 .6 0 1 .4 1 1zm155 5c0 .5-.5 1-1.1 1-.5 0-.7-.5-.4-1 .3-.6.8-1 1.1-1 .2 0 .4.4.4 1zm-154 2c0 .5-.4 1-1 1-.5 0-1-.5-1-1 0-.6.5-1 1-1 .6 0 1 .4 1 1zm152.5 5c.3.5.1 1-.4 1-.6 0-1.1-.5-1.1-1 0-.6.2-1 .4-1 .3 0 .8.4 1.1 1zm-151 2c.3.5.1 1-.4 1-.6 0-1.1-.5-1.1-1 0-.6.2-1 .4-1 .3 0 .8.4 1.1 1zm148.5 5c0 .5-.5 1-1.1 1-.5 0-.7-.5-.4-1 .3-.6.8-1 1.1-1 .2 0 .4.4.4 1zm-146 2c0 .5-.4 1-1 1-.5 0-1-.5-1-1 0-.6.5-1 1-1 .6 0 1 .4 1 1zm3 7c0 .5-.2 1-.4 1-.3 0-.8-.5-1.1-1-.3-.6-.1-1 .4-1 .6 0 1.1.4 1.1 1zm136.5 4c.3.5.1 1-.4 1-.6 0-1.1-.5-1.1-1 0-.6.2-1 .4-1 .3 0 .8.4 1.1 1zM85 194c0 .5-.4 1-1 1-.5 0-1-.5-1-1 0-.6.5-1 1-1 .6 0 1 .4 1 1zm128.5 4c.3.5.1 1-.4 1-.6 0-1.1-.5-1.1-1 0-.6.2-1 .4-1 .3 0 .8.4 1.1 1zM89 200c0 .5-.2 1-.4 1-.3 0-.8-.5-1.1-1-.3-.6-.1-1 .4-1 .6 0 1.1.4 1.1 1zm120 4c0 .5-.4 1-1 1-.5 0-1-.5-1-1 0-.6.5-1 1-1 .6 0 1 .4 1 1zm-5 5c0 .5-.5 1-1.1 1-.5 0-.7-.5-.4-1 .3-.6.8-1 1.1-1 .2 0 .4.4.4 1zm-105 1c0 .5-.5 1-1.1 1-.5 0-.7-.5-.4-1 .3-.6.8-1 1.1-1 .2 0 .4.4.4 1zm100 3.4c0 .3-.4.8-1 1.1-.5.3-1 .1-1-.4 0-.6.5-1.1 1-1.1.6 0 1 .2 1 .4zm-94 1.6c0 .5-.4 1-1 1-.5 0-1-.5-1-1 0-.6.5-1 1-1 .6 0 1 .4 1 1zm88 3c0 .5-.4 1-1 1-.5 0-1-.5-1-1 0-.6.5-1 1-1 .6 0 1 .4 1 1zm-82 1c0 .5-.4 1-1 1-.5 0-1-.5-1-1 0-.6.5-1 1-1 .6 0 1 .4 1 1zm75.4 3.1c-.3.5-1 .7-1.5.3-.5-.3-.7-1-.3-1.5.3-.5 1-.7 1.5-.3.5.3.7 1 .3 1.5zM117 222c0 .5-.5 1-1.1 1-.5 0-.7-.5-.4-1 .3-.6.8-1 1.1-1 .2 0 .4.4.4 1zm7 3c0 .5-.4 1-1 1-.5 0-1-.5-1-1 0-.6.5-1 1-1 .6 0 1 .4 1 1zm6.5 2c.3.5.1 1-.4 1-.6 0-1.1-.5-1.1-1 0-.6.2-1 .4-1 .3 0 .8.4 1.1 1zm42.5 0c0 .5-.4 1-1 1-.5 0-1-.5-1-1 0-.6.5-1 1-1 .6 0 1 .4 1 1zm-35 2c0 .5-.4 1-1 1-.5 0-1-.5-1-1 0-.6.5-1 1-1 .6 0 1 .4 1 1zm28 0c0 .5-.2 1-.4 1-.3 0-.8-.5-1.1-1-.3-.6-.1-1 .4-1 .6 0 1.1.4 1.1 1zm-21 1c0 .5-.4 1-1 1-.5 0-1-.5-1-1 0-.6.5-1 1-1 .6 0 1 .4 1 1zm7 0c0 .5-.4 1-1 1-.5 0-1-.5-1-1 0-.6.5-1 1-1 .6 0 1 .4 1 1zm7 0c0 .5-.4 1-1 1-.5 0-1-.5-1-1 0-.6.5-1 1-1 .6 0 1 .4 1 1z"/><path d="M132 120.8c0 .4 4.1 4.8 9 9.7l9 9 9-9c5-4.9 9-9.3 9-9.7 0-.5-8.1-.8-18-.8s-18 .3-18 .8zM101.1 68c-4.6.7-5.1 1.1-10 9.4l-2.5 4 4.5-3.6c2.5-2 7.1-5.3 10.4-7.2 5.9-3.6 5.6-3.9-2.4-2.6zM196.5 70.5c3.3 2 8 5.3 10.5 7.3l4.5 3.7-2.5-4c-5.7-9.5-4.8-8.8-13.5-10l-5-.6 6 3.6zM83 70.8l-9.5 1.7-1.6 10c-.9 5.5-1.4 10.2-1.3 10.3.1.2 1.6-.4 3.3-1.4 2.1-1.3 2.7-2 1.8-2.6-.6-.4-.7-.8-.2-.8.6 0 1.6.4 2.4.9 1 .6.2 1.6-3.2 3.6-4.2 2.4-4.7 3.1-5.2 7.3-.4 2.6-.9 5.5-1.2 6.4-.8 3 .6 2 2.6-2 1-2 3.9-6.5 6.5-9.9 2.5-3.4 3.9-6 3.2-5.7-.8.3-1.7.1-2.1-.5-.3-.6.1-1.1 1-1.1 2.2 0 8.5-6.3 8.5-8.4 0-.9.4-1.6.9-1.6.8 0 5.1-6.4 5.1-7.6 0-.5.6-.6-11 1.4zM206 69.5c0 1.1 4.3 7.5 5.1 7.5.5 0 .9.7.9 1.6 0 2.1 6.3 8.4 8.5 8.4.9 0 1.3.5 1 1.1-.4.6-1.3.8-2.1.5-.7-.3.7 2.3 3.2 5.7 2.6 3.4 5.5 7.9 6.5 9.9 2 4 3.4 5 2.6 2-.3-.9-.8-3.8-1.2-6.4-.5-4.2-1-4.9-5.2-7.3-3.4-2-4.2-3-3.2-3.6.8-.5 1.9-.9 2.4-.9.6 0 .4.4-.2.8-.9.6-.3 1.3 1.8 2.6 1.7 1 3.2 1.6 3.3 1.4.1-.1-.4-4.8-1.3-10.3l-1.6-10-6.5-1.1c-10.3-1.8-14-2.3-14-1.9zM59.5 101.7c-3.8 2.4-7.6 4.8-8.4 5.2-1.2.7-1 2.5.9 11 1.3 5.5 2.6 10.1 2.9 10.1.7-.1 2.9-3 7.7-10.2 2.4-3.5 3.3-6.2 3.9-11.4.4-3.7.9-7.3 1.2-8.1.8-2-.7-1.4-8.2 3.4zM232.3 98.3c.3.8.8 4.4 1.2 8.1.6 5.2 1.5 7.9 3.9 11.4 4.8 7.2 7 10.1 7.7 10.2.7 0 5.3-19.9 4.8-20.4-1.1-.9-17.1-10.6-17.6-10.6-.3 0-.3.6 0 1.3zM59.3 125.9c-3.7 5.3-3.8 6.4-1.9 13.6l1.3 5 .7-5.5c.4-3 1.4-8.1 2.2-11.4.8-3.2 1.4-6 1.2-6.1-.2-.2-1.8 1.8-3.5 4.4zM237 121.4c0 .5.6 3.4 1.4 6.5.8 3.1 1.8 8.1 2.2 11.1l.7 5.5 1.3-5c2-7.3 1.8-8.5-2.1-13.9-1.9-2.7-3.5-4.6-3.5-4.2zM48.5 140.9c-3.3 4.4-6 8.5-6 9.1 0 .6 2.7 4.7 6 9.1 5.9 8 5.9 8.1 6.7 5.3.5-1.6.6-3.7.4-4.7-.2-.9-.1-1.5.4-1.2 2 1.2 1.5-14.6-.8-22.9-.8-2.8-.8-2.7-6.7 5.3zM244.5 136.6c-1.4 7.3-1.7 9.9-1.7 13.6.2 7.2.4 8.8 1.5 8.1.6-.3.7-.1.3.5-.4.7-.4 2.8 0 4.8l.7 3.7 1.9-2.4c1-1.3 3.9-5.2 6.4-8.7l4.6-6.2-4.6-6.3c-2.5-3.4-5.4-7.3-6.4-8.6l-1.9-2.4-.8 3.9zM57.2 160.8c-1.7 7.5-1.6 8.1 2.3 13.6 4 5.7 4 5.6 2-2.7-.7-3.4-1.8-8.5-2.2-11.2l-.8-5-1.3 5.3zM240.6 161c-.4 3-1.4 8-2.2 11.1-1.9 7.8-1.9 7.9 2.1 2.3 3.9-5.4 4.1-6.6 2.1-13.9l-1.3-5-.7 5.5zM52 182c-1.2 5.6-2.1 10.2-1.9 10.4 1.3 1.1 17.2 10.6 17.4 10.4.2-.2-.3-4-.9-8.5-1-6.8-1.9-9.2-4.9-13.5-4.9-7-6.3-8.8-6.9-8.8-.3 0-1.5 4.5-2.8 10zM242.9 174.3c-7.9 10.9-8.2 11.6-9.4 19.9-.7 4.6-1.2 8.4-1 8.6.2.2 16.1-9.3 17.4-10.4.5-.5-4.1-20.4-4.8-20.4-.3 0-1.3 1.1-2.2 2.3zM68.3 193.7c.3 1 .8 3.9 1.2 6.5.5 4.2 1 4.9 5.2 7.3 3.4 2 4.2 3 3.2 3.6-.8.5-1.8.9-2.4.9-.5 0-.4-.4.2-.8.9-.6.3-1.3-1.8-2.6-1.7-1-3.2-1.6-3.3-1.4-.1.1.4 4.8 1.3 10.3l1.6 10 10 1.7c5.5.9 10.1 1.5 10.3 1.3.5-.5-4-7.5-4.9-7.5-.5 0-.9-.7-.9-1.6 0-2.1-6.3-8.4-8.5-8.4-.9 0-1.3-.5-1-1.1.4-.6 1.3-.8 2.1-.5.7.3-.7-2.3-3.2-5.7-2.6-3.4-5.5-7.9-6.5-10-2-3.9-3.4-4.9-2.6-2zM229.1 195.7c-1 2.1-3.9 6.6-6.5 10-2.5 3.4-3.9 6-3.2 5.7.8-.3 1.7-.1 2.1.5.3.6-.1 1.1-1 1.1-2.2 0-8.5 6.3-8.5 8.4 0 .9-.4 1.6-.9 1.6-.9 0-5.4 7-4.9 7.5.2.2 4.8-.4 10.3-1.3l10-1.7 1.6-10c.9-5.5 1.4-10.2 1.3-10.3-.1-.2-1.6.4-3.3 1.4-2.1 1.3-2.7 2-1.8 2.6.6.4.8.8.2.8-.5 0-1.6-.4-2.4-.9-1-.6-.2-1.6 3.2-3.6 4.2-2.4 4.7-3.1 5.2-7.3.4-2.6.9-5.5 1.2-6.5.8-2.9-.6-1.9-2.6 2zM90.1 221c.8 1.4 2.5 4.2 3.8 6.2 2.4 4 3 4.3 10.6 5.3l5 .6-6-3.6c-3.3-2-8-5.3-10.5-7.3-3.8-3.1-4.2-3.3-2.9-1.2zM206.5 222.5c-2.2 1.8-6.7 5-10 7l-6 3.6 5-.6c7.6-1 8.2-1.3 10.6-5.3 1.3-2 2.9-4.7 3.7-6 1.9-2.9 1.5-2.8-3.3 1.3zM100 237.7c7.6 13 8.5 14.3 10 13.8.8-.2 5.5-1.4 10.3-2.6 4.9-1.2 8.5-2.5 8-2.9-7.8-6.7-13.3-9.8-19.4-10.9-3.6-.6-7.6-1.1-8.8-1.1h-2.3l2.2 3.7zM189.9 235.4c-3.9.8-7.4 2.5-12.2 6-3.7 2.7-6.6 5.1-6.4 5.2.3.4 20.1 5.3 20.3 5.1.5-.6 8.2-13.5 9.3-15.5 1.1-2.1 1-2.2-2.1-2.1-1.8.1-5.8.6-8.9 1.3zM126 241.9c5.8 4.4 5.6 4.4 14.5 1.8 3.9-1.1 4-1.1 1-1.4-3.3-.4-17-3.2-19.5-4.1-.8-.2 1 1.4 4 3.7zM172.1 239.6c-3 .8-7.9 1.9-11 2.3l-5.6.7 4 1.2c9 2.5 8.7 2.5 14.4-1.8 6-4.4 6-4.5-1.8-2.4zM145.8 244.5c-2 .7-3.8 1.1-4.1.9-.3-.3-2.4 0-4.8.6-3 .8-3.8 1.4-2.9 2 .8.5 1.8.6 2.2.4.5-.3.7-.1.6.4-.2.6 2.7 3.3 6.5 6.1l6.7 5.2 6.8-5.2c3.7-2.8 6.6-5.5 6.4-6.1-.1-.5.1-.7.6-.4.4.2 1.4.1 2.2-.4.9-.6.1-1.2-2.9-2-2.4-.6-4.5-.9-4.8-.6-.3.2-2.3-.2-4.5-1s-4.1-1.4-4.2-1.3c0 0-1.7.6-3.8 1.4z"/></svg>